# xmcd
#
# Track frame offsets: 
#        150
#        14707
#        28396
#        40713
#        52667
#        67319
#        83512
#        95840
#        104904
#        119241
#        130404
#        145694
#        164455
#        182019
#
# Disc length: 2633 seconds
#
# Revision: 0
# Processed by: cddbd v1.5.2PL0 Copyright (c) Steve Scherf et al.
# Submitted via: ExactAudioCopyFreeDBPlugin 1.0
#
DISCID=d20a470e
DTITLE=Triple Chicken Foot - Tar River
DYEAR=2010
DGENRE=Country
TTITLE0=Citico
TTITLE1=Single Girl
TTITLE2=Fort Smith Breakdown
TTITLE3=The Parting Hand
TTITLE4=Tar River
TTITLE5=Oh Those Tombs
TTITLE6=Black Jack Grove
TTITLE7=He Said If You Love Me, Feed My Sheep
TTITLE8=Old Cheat Mountain
TTITLE9=Satan, Your Kingdom Must Come Down
TTITLE10=Pretty Little Girl With Her Hair All Down Behind
TTITLE11=There's a Beautiful City Called Heaven
TTITLE12=Free State Hornpipe
TTITLE13=Peckerwood
EXTD=
EXTT0=
EXTT1=
EXTT2=
EXTT3=
EXTT4=
EXTT5=
EXTT6=
EXTT7=
EXTT8=
EXTT9=
EXTT10=
EXTT11=
EXTT12=
EXTT13=
PLAYORDER=
